<?xml version="1.0" encoding="utf-8"?>
<!-- Generator: Adobe Illustrator 22.0.1, SVG Export Plug-In . SVG Version: 6.00 Build 0)  -->
<svg version="1.1" xmlns="http://www.w3.org/2000/svg" xmlns:xlink="http://www.w3.org/1999/xlink" x="0px" y="0px"
	 viewBox="0 0 648 432" style="enable-background:new 0 0 648 432;" xml:space="preserve">
<style type="text/css">
	.st0{fill:#C69C6D;}
	.st1{fill:#FC354C;}
	.st2{fill:#440606;stroke:#440606;stroke-width:1.0757;stroke-miterlimit:10;}
	.st3{fill:none;stroke:#FFFFFF;stroke-width:1.5;stroke-miterlimit:10;}
	.st4{fill:#440606;}
	.st5{fill:#603813;}
	.st6{fill:#FFFFFF;stroke:#440606;stroke-width:3;stroke-miterlimit:10;}
	.st7{fill:none;stroke:#440606;stroke-width:3.0259;stroke-miterlimit:10;}
	.st8{fill:none;stroke:#440606;stroke-width:3.4953;stroke-miterlimit:10;}
	.st9{fill:none;stroke:#440606;stroke-width:3.4443;stroke-miterlimit:10;}
	.st10{fill:none;stroke:#440606;stroke-width:3.2094;stroke-miterlimit:10;}
	.st11{fill:none;stroke:#440606;stroke-width:2.7929;stroke-miterlimit:10;}
	.st12{fill:none;stroke:#440606;stroke-width:3.5589;stroke-miterlimit:10;}
	.st13{fill:none;stroke:#440606;stroke-width:3.1801;stroke-miterlimit:10;}
	.st14{fill:#FFFFFF;}
	.st15{fill:none;stroke:#440606;stroke-width:1.2327;stroke-linecap:round;stroke-miterlimit:10;}
	.st16{fill:#FD818F;stroke:#440606;stroke-width:2;stroke-miterlimit:10;}
	.st17{fill:none;stroke:#440606;stroke-width:3;stroke-miterlimit:10;}
	.st18{fill:none;stroke:#440606;stroke-width:3.0214;stroke-miterlimit:10;}
</style>
<g id="color">
	<path class="st0" d="M235.8,251.6c-7.3,1.6-14.8,2.9-21.8,5.3c-24,8.2-41.9,30-46.6,54.6c-4.6,24.7,3.7,51.3,20.6,70.6
		c29.6,33.6,91.3,45.5,127.2,18.3c5.1-3.9,9.7-8.6,13.6-14.1c14.4-20.5,8.3-49.9,24.9-68.6c12.4-14,34.5-15.3,49.3-26.8
		c13.1-10.2,18.2-26.6,16.9-42.8c-0.7-8.1-2.9-16-6.2-23.4c-3.3-7.1-7.1-17-14.3-20.7l-19-18c-13-9.8-30-16.3-46.4-16.7
		c-18.3-0.5-35.3,8-44.4,24.1c-3.5,6.3-6.5,13.1-9.7,19.6C279.9,213,262.7,245.7,235.8,251.6z"/>
	<path d="M495.9,69.5c-0.1,0.1-169.3,169.6-169.3,169.6c-0.1,0.1-0.4,0.3-0.3,0.4c15.4,10,16.5,19,16.5,19l1.4-0.8
		c0.2-0.1,87.6-87.5,137.2-137l32.9-32.9L495.9,69.5z"/>
	<path class="st1" d="M417.7,232c1.3,0.3,2.9-0.8,4.2-1.6c2.2-1.2,4.4-1.8,6.8-2.3c4.5-0.9,9.3-1.1,13.9-0.3
		c8.9,1.4,22.1,8.9,22,19.4c-0.1,5.8-5.7,7.3-9.9,4.4c-0.2-0.1-0.4-0.3-0.6-0.5c-0.6-0.5-1.4-0.5-2-0.1c-9.8,6.3-4.7,18.3,2.3,24.5
		c12.1,10.6,28.7,2.8,36.4-9c7.4-11.3,7.7-26,1.9-38.1c-6.8-14.3-20.6-24.1-34.1-31.3c-8-4.3-9.3-13.9-3-20.7
		c5.7-6.2,16.3-8.7,23.6-12.6c8.3-4.4,16.3-9.4,23.1-15.8c5.7-5.3,10.6-11.7,12.7-19.2c2.3-8.2,0.8-16.8-2.9-24.4
		c-2.1-4.3-10-13.9-18-16.2c-12.5-3.6-31.1,7.4-27.3,22.1c0.4,1.4,1,2.8,2,4.1c0.5,0.6,1.3,0.8,2,0.6c0.3-0.1,0.6-0.2,0.9-0.3
		c4.5-1.2,8.1,0.5,8.9,3.5c2.2,8.7-9.9,11.9-15.8,13.3c-6.5,1.6-12.9,3.3-19.5,4.1c-9.4,1.1-18.9,0.6-28.3,2
		c-2.5,0.4-30.7,8.2-29.7,10c-0.1-0.2-0.2-0.4-0.2-0.4c-0.4-0.8-0.4-1.8,0.2-2.7c1.1-1.4,2.1-2.8,3.2-4.2
		c10.6-14.3,18.5-30.3,18.1-48.6c-0.4-17.8-10.1-32.8-27.4-38.4c-7.6-2.4-16.2-2.3-23.2,1.6c-10.8,6.2-15.5,26.3-2.8,33.5
		c1.2,0.7,2.6,1.1,4.1,1.3c0.8,0.1,1.5-0.4,1.8-1.1c0.1-0.3,0.2-0.5,0.4-0.7c2.2-3.9,5.7-5.2,8.3-3.8c7.5,4.2,0.8,19.5-1.8,24.9
		c-4.7,9.6-12,18.4-21.7,23.1c-2.6,1.2-5.5,2.5-8.6,3.4c-0.6-0.9-1.3-1.7-2-2.5c-4.9-5.8-11.3-10-17.1-16.8
		c-6.5-7.6-9.6-16.2-11.7-25.8c-2.1-10.1-5.5-17.5-14.3-23.3c-8.5-5.5-17.1-10.8-25.4-16.5c-9.8-6.7-19.6-13.4-30.4-18.4
		c-10.1-4.7-21.7-7.9-32.7-4.5c-0.7,0.2-1.4,0.5-2.1,0.9c-15.3,8.3-16.2,37.7-17.4,52.7c-0.9,10.4-1.2,20.9-1.2,31.4
		c0,5.1-0.7,10.8,0.2,15.7c1.3,7.4,6.7,13.2,11.9,18.2c7.1,6.8,12.7,14,15.8,23.5c2.7,8.5,2.9,16.1,5.2,23.4
		c1.4,4.5,3.8,8.7,6.9,12.2c0.7,0.8,1.4,1.4,2.2,2.1c10.3,8.7,13.4,16.5,13.4,24.6c0,14-7.4,27-6.9,41.1c1,31.8,24.7,72.1,61.6,63.6
		c7.8-1.8,15.1-6.3,19-13.3c6.1-10.9-0.2-30.6-14.8-30.2c-1.4,0-2.8,0.4-4.2,1c-0.7,0.3-1.1,1.1-1,1.9c0,0.3,0,0.6,0,0.8
		c0.1,4.4-3.3,7.8-7.7,6.9c-7.8-1.6-10.8-15.1-12.5-21.4c-2.4-9.1-3.4-18.5-2.9-27.9c0.8-14.4,6.1-27.7,9.9-41.5
		c0.4-1.6,1.6-2,2-4.4c2.5-5.4,5.1-10.8,8-16c9.1-16.1,26.1-24.6,44.4-24.1c16.5,0.4,32.2,7.8,45.2,17.5c0,0,19.7,16.7,19.7,16.7
		c8.3,7,13.2,17.1,17.2,26.9C416.5,231.4,417.1,231.9,417.7,232z"/>
	<path class="st1" d="M175.2,256.5c2.1-1.1,4.1-2.5,6-4c3.5-2.9,6.3-6.2,9-9.7c1.1-1.4,0.3-3.4-1.4-3.7c-1.6-0.3-3.3-0.6-4.9-1
		c-16.6-3.5-32.3-10-43.5-23.3c-10.9-12.9-13.4-29.8-4.6-44.6c3.9-6.5,10.1-11.9,17.6-13.4c11.6-2.4,27.7,9,23.1,22.1
		c-0.4,1.3-1.1,2.4-2.1,3.5c-0.5,0.5-1.3,0.7-2,0.4c-0.2-0.1-0.5-0.2-0.7-0.3c-4-1.4-7.4-0.1-8.3,2.5c-2.7,7.7,11.7,14.4,17,16.6
		c9.4,3.9,20.1,5.6,30.1,2.8c2.8-0.8,5.9-1.8,8.8-3.2c0.2-0.1,0.5-0.2,0.7-0.3c1,1.7,2.2,3.4,3.6,4.9c0.7,0.8,1.5,1.5,2.3,2.2
		c10.4,8.7,13.5,16.6,13.5,24.7c0,6.8-1.7,13.4-3.5,19.9c-18.1-0.8-37.9,12.8-37.9,12.8c-20,10-29.2,39.6-29.2,39.6
		c-4.2-0.6-8.4-1.5-11.8-1.9c-9.4-1.3-18.8-3.1-27.9-6.2c-17.1-5.9-32.4-17.4-33.8-36.6c-0.2-3-0.1-6.2,0.3-9.6
		c0.6-4.6,4.7-15.6,11.2-20.1c10.2-7.1,30.3-2.9,31.3,11.6c0.1,1.4-0.1,2.8-0.6,4.3c-0.2,0.7-0.9,1.1-1.7,1.1c-0.3,0-0.6,0-0.9,0
		c-4.4,0.3-7.1,3-6.9,5.8c0.6,8.5,17.2,8.9,23.2,8.8C159.5,262.2,168,260.4,175.2,256.5z"/>
	<path class="st2" d="M268,165.3c-1.1-1.5,11.8-8.3,17.8-11.3c1.5-0.8,3.1-0.8,3.4,0c1.6,3.5,0.4,9.1-7.1,12.7
		C277.1,169.1,271,169.4,268,165.3z"/>
	<path d="M238.3,309.6c-0.7-0.7-1-1-1-1c-1.2-1.2-3.2-1.2-4.5,0l-7.5,7.5c-1.2,1.2-1.2,3.2,0,4.5c0,0,0.7,0.7,1.4,1.4
		c0,2.8,0,5.6,0,5.6c0,1.8,0.7,3.6,2,4.9l23.3,23.3c1.4,1.4,3.2,2.1,5.1,2c0,0,2.6,0,5.3-0.1c0.8,0.8,1.6,1.5,1.6,1.5
		c1.2,1.2,3.2,1.1,4.4-0.1l7.5-7.5c1.2-1.2,1.2-3.2,0-4.5C275.9,347.2,244.4,315.8,238.3,309.6z"/>
	<line class="st3" x1="234.4" y1="313" x2="271.4" y2="350"/>
	<path class="st4" d="M311.4,299.2c1.7,0.1,3.4,0.3,5.1,0.2c5.1-0.1,9.7-2,14-4.7c7.9-5.1,11-13,13.4-22.3
		c1.4-5.7-0.2-12.6-0.2-12.6s5.7-5.7,5.7-5.7c1-0.2,5.5,14.4,5.7,15.7c0.4,2.1,0.6,4.1,0.7,6.2c0.3,10.2-3.7,19.7-9.5,28.5
		c-8.1,12.3-18.6,28.7-32.3,35.2c-3.4,1.6-7.2,2.2-10.9,1.9c-2.5-0.2-9-1.1-10.3-3.7c1.7-2,4.9-2.4,7.3-3.2
		c4.9-1.5,9.2-4.7,12.2-8.8c3-4,3.2-9.2,2.6-14C314.7,310.5,313.2,299.4,311.4,299.2z"/>
	<ellipse class="st5" cx="314.9" cy="268" rx="29.2" ry="29.8"/>
	<path d="M398.9,203.1C426,176,473.4,129,473.4,129l-42,6c0,0-1.5,0.6-51,50.2l-1,1.8l18.7,17.5L398.9,203.1z"/>
	<path class="st4" d="M513,87.1l-14.7-14.7c-2.8-2.8-2.8-7.4,0-10.3l37.8-43.8c2.8-2.8,7.4-2.8,10.3,0L567,38.1
		c2.8,2.8,2.8,7.4,0,10.3l-43.8,38.8C520.5,89.9,515.9,89.9,513,87.1z"/>
	<path class="st6" d="M505.9,69.9L505.9,69.9c-1.3-1.2-1.4-3.2-0.2-4.5l34.5-37.8c1.2-1.3,3.2-1.4,4.5-0.2v0
		c1.3,1.2,1.4,3.2,0.2,4.5l-34.5,37.8C509.2,71,507.2,71.1,505.9,69.9z"/>
	<path class="st6" d="M516.9,80L516.9,80c-1.2-1.2-1.2-3.3,0-4.5l36.2-36.2c1.2-1.2,3.3-1.2,4.5,0v0c1.2,1.2,1.2,3.3,0,4.5L521.4,80
		C520.2,81.2,518.2,81.2,516.9,80z"/>
	<g>
		<path d="M492.7,59.7C492.7,59.7,492.7,59.7,492.7,59.7c-3.6-3.1-3.9-8.5-0.8-12c3.1-3.5,8.5-3.9,12-0.8c0,0,0.1,0,0.1,0.1
			L492.7,59.7z"/>
		<rect x="495.7" y="52" transform="matrix(0.6593 -0.7519 0.7519 0.6593 129.1445 394.7283)" width="8.9" height="5.7"/>
	</g>
	<g>
		<path d="M506,44.5C506,44.5,506,44.5,506,44.5c-3.6-3.1-3.9-8.5-0.8-12c3.1-3.5,8.5-3.9,12-0.8c0,0,0.1,0,0.1,0.1L506,44.5z"/>
		<rect x="508.9" y="36.9" transform="matrix(0.6593 -0.7519 0.7519 0.6593 145.0373 399.5461)" width="8.9" height="5.7"/>
	</g>
	<g>
		<path d="M519.7,29.8C519.6,29.8,519.6,29.8,519.7,29.8c-3.6-3.1-3.9-8.5-0.8-12c3.1-3.5,8.5-3.9,12-0.8c0,0,0.1,0,0.1,0.1
			L519.7,29.8z"/>
		<rect x="522.6" y="22.2" transform="matrix(0.6593 -0.7519 0.7519 0.6593 160.7669 404.8087)" width="8.9" height="5.7"/>
	</g>
	<g>
		<path d="M527.5,91.1C527.5,91.1,527.5,91.1,527.5,91.1c3.1,3.5,8.5,3.9,12,0.7c3.5-3.1,3.8-8.5,0.7-12c0,0,0-0.1-0.1-0.1
			L527.5,91.1z"/>
		<rect x="527.8" y="80.8" transform="matrix(0.7477 -0.6641 0.6641 0.7477 78.7795 374.5734)" width="8.9" height="5.7"/>
	</g>
	<g>
		<path d="M542.6,77.7C542.6,77.7,542.6,77.7,542.6,77.7c3.1,3.5,8.5,3.9,12,0.7c3.5-3.1,3.8-8.5,0.7-12c0,0,0-0.1-0.1-0.1
			L542.6,77.7z"/>
		<rect x="542.9" y="67.4" transform="matrix(0.7477 -0.6641 0.6641 0.7477 91.4458 381.1933)" width="8.9" height="5.7"/>
	</g>
	<g>
		<path d="M557.2,64C557.2,64,557.2,64,557.2,64c3.1,3.5,8.5,3.9,12,0.7c3.5-3.1,3.8-8.5,0.7-12c0,0,0-0.1-0.1-0.1L557.2,64z"/>
		<rect x="557.5" y="53.7" transform="matrix(0.7477 -0.6641 0.6641 0.7477 104.28 387.4417)" width="8.9" height="5.7"/>
	</g>
</g>
<g id="outline">
	<path class="st7" d="M220,201c-0.2,0.1-0.5,0.2-0.8,0.3c-2.9,1.4-6,2.5-8.8,3.2c-9.9,2.8-20.7,1.1-30.1-2.8
		c-5.3-2.2-19.6-8.9-17-16.6c0.9-2.6,4.3-3.9,8.3-2.5c0.2,0.1,0.5,0.2,0.7,0.3c0.7,0.3,1.5,0.1,2-0.4c1-1.1,1.7-2.2,2.1-3.5
		c4.6-13.1-11.5-24.5-23.1-22.1c-7.4,1.5-13.7,6.9-17.6,13.4c-8.8,14.8-6.3,31.7,4.6,44.6c11.2,13.3,26.9,19.7,43.5,23.3
		c1.6,0.3,3.2,0.7,4.9,1c1.7,0.3,2.5,2.3,1.4,3.7c-2.7,3.5-5.5,6.8-9,9.7c-8.4,6.8-19.4,9.6-30,9.8c-6,0.1-22.5-0.3-23.2-8.8
		c-0.2-2.9,2.5-5.5,6.9-5.8c0.3,0,0.6,0,0.9,0c0.7,0,1.4-0.5,1.7-1.1c0.5-1.4,0.7-2.9,0.6-4.3c-1.1-14.5-21.2-18.7-31.3-11.6
		c-6.5,4.5-10.7,15.6-11.2,20.1c-0.4,3.4-0.5,6.6-0.3,9.6c1.5,19.3,16.8,30.8,33.8,36.6c9,3.1,18.4,4.9,27.9,6.2
		c3.4,0.5,7.6,1.3,11.8,1.9"/>
	<path class="st8" d="M235.8,251.6c-7.3,1.6-14.8,2.9-21.8,5.3c-24,8.2-41.9,30-46.6,54.6c-4.6,24.7,3.7,51.3,20.6,70.6
		c29.6,33.6,91.3,45.5,127.2,18.3c5.1-3.9,9.7-8.6,13.6-14.1c14.4-20.5,8.3-49.9,24.9-68.6c12.4-14,34.5-15.3,49.3-26.8
		c13.1-10.2,18.2-26.6,16.9-42.8c-0.7-8.1-2.9-16-6.2-23.4c-3.3-7.1-8.1-17-15.3-20.8"/>
	<path class="st9" d="M379.2,186.8c-13-9.8-28.7-17.1-45.2-17.5c-18.3-0.5-35.3,8-44.4,24.1c-3.5,6.3-6.5,13.1-9.7,19.6"/>
	<path class="st10" d="M513,87.1l-14.7-14.7c-2.8-2.8-2.8-7.4,0-10.3l37.8-43.8c2.8-2.8,7.4-2.8,10.3,0L567,38.1
		c2.8,2.8,2.8,7.4,0,10.3l-43.8,38.8C520.5,89.9,515.9,89.9,513,87.1z"/>
	<path class="st11" d="M506.3,95.8c5.4-5.4,8.5-8.5,8.5-8.5c0,0,0.1-0.1,0.1-0.1"/>
	<path class="st11" d="M496.8,69c-0.1,0.1-0.1,0.1-0.2,0.2l-170,170c-0.1,0.1-0.2,0.3-0.3,0.4"/>
	<path class="st11" d="M344.2,257.7c0.2-0.1,0.4-0.2,0.5-0.4c0,0,87.1-87.1,136.6-136.6"/>
	<path class="st12" d="M417.6,232.5c7.1-4.6,17.5-5.8,25-4.6c8.9,1.4,22.1,8.9,22,19.4c-0.1,5.8-5.7,7.3-9.9,4.4
		c-0.2-0.1-0.4-0.3-0.6-0.5c-0.6-0.4-1.4-0.5-2-0.1c-9.9,6.3-4.8,18.3,2.3,24.5c12.1,10.6,28.7,2.8,36.4-9c7.4-11.3,7.7-26,1.9-38.1
		c-6.8-14.3-20.6-24.1-34.1-31.3c-8-4.3-9.3-13.9-3-20.7c5.7-6.2,16.3-8.7,23.6-12.6c8.3-4.4,16.3-9.4,23.1-15.8
		c5.7-5.3,10.6-11.7,12.7-19.2c2.3-8.2,0.8-16.8-2.9-24.4c-2.1-4.3-10-13.9-18-16.2c-12.5-3.6-31.1,7.4-27.3,22.1
		c0.4,1.4,1,2.8,2,4.1c0.5,0.6,1.3,0.8,2,0.6c0.3-0.1,0.6-0.2,0.9-0.3c4.5-1.2,8.1,0.5,8.9,3.5c1.3,4.9-3.6,8.6-7.1,11.1
		c-0.4,0.2-0.8,0.5-1.2,0.3"/>
	<path class="st13" d="M281.2,210.9c-0.5,1.1-1.2,1.6-1.5,2.8c-3.8,13.8-9.1,27.1-9.9,41.5c-0.5,9.4,0.5,18.8,2.9,27.9
		c1.7,6.3,4.8,19.8,12.5,21.4c4.4,0.9,7.8-2.5,7.7-6.9c0-0.3,0-0.5,0-0.8c-0.1-0.8,0.3-1.5,1-1.9c1.4-0.6,2.8-1,4.2-1
		c14.6-0.4,20.9,19.3,14.8,30.2c-3.9,7-11.3,11.5-19,13.3c-36.9,8.5-60.5-31.7-61.6-63.6c-0.5-14.1,6.9-27.1,6.9-41.1
		c0-8.1-3.1-16-13.5-24.7c-0.8-0.7-1.6-1.4-2.3-2.2c-3.1-3.5-5.3-7.6-6.8-12c-2.3-7.3-2.5-14.9-5.2-23.4c-3-9.5-8.7-16.7-15.8-23.5
		c-5.3-5-10.6-10.8-11.9-18.2c-0.9-5-0.2-10.7-0.2-15.7c0-10.5,0.3-21,1.2-31.4C186,66.7,186.9,37.5,202,29c0.7-0.4,1.4-0.7,2.1-0.9
		c11-3.5,22.7-0.3,32.9,4.4c10.8,5,20.6,11.7,30.4,18.4c8.3,5.7,17,11,25.4,16.5c8.8,5.7,12.2,13.1,14.3,23.3
		c2,9.6,5.2,18.2,11.7,25.8c5.8,6.8,12.2,11,17.1,16.8c2.5,3,4.5,6.3,5.9,9.9c1.2,3,4.6,5.2,7.8,4.7"/>
	<path class="st13" d="M337.2,136c3.3-0.9,6.5-2.3,9.2-3.6c9.8-4.7,17-13.5,21.7-23.1c2.6-5.4,9.3-20.7,1.8-24.9
		c-2.5-1.4-6.1-0.1-8.3,3.8c-0.1,0.2-0.3,0.5-0.4,0.7c-0.3,0.7-1.1,1.1-1.8,1.1c-1.5-0.2-2.9-0.6-4.1-1.3c-12.7-7.2-8-27.3,2.8-33.5
		c6.9-4,15.6-4.1,23.2-1.6c17.3,5.6,27,20.6,27.4,38.4c0.4,18.3-7.5,34.3-18.1,48.6c-1,1.4-2.1,2.8-3.2,4.2
		c-0.6,0.8-0.6,1.9-0.2,2.7c0,0,0.1,0.1,0.2,0.4c11.8-6.4,25-10.2,38.3-10.9c1.1-0.1,2.1-0.2,3.3-0.1"/>
	<path class="st13" d="M429.1,136.7c-0.1,0-0.1,0-0.2-0.1"/>
	<g>
		<circle class="st4" cx="228.1" cy="142.9" r="11.4"/>
		
			<ellipse transform="matrix(0.9666 -0.2561 0.2561 0.9666 -28.1992 63.8174)" class="st14" cx="230.9" cy="140.2" rx="4.2" ry="4.3"/>
	</g>
	<g>
		<circle class="st4" cx="282.2" cy="111.3" r="11.4"/>
		
			<ellipse transform="matrix(0.9658 -0.2593 0.2593 0.9658 -18.3995 77.6216)" class="st14" cx="285" cy="108.5" rx="4.2" ry="4.3"/>
	</g>
	<path class="st15" d="M267.7,165.5c-1.1-1.5,11.8-8.3,17.8-11.3c1.5-0.8,3.1-0.8,3.4,0c1.6,3.5,0.4,9.1-7.1,12.7
		C276.8,169.4,270.7,169.6,267.7,165.5z"/>
	<path class="st16" d="M285.5,148.2c3.6,0.4,4.4,4,4,7c-0.4,3.4-2.1,6.7-4.8,8.8c-1.2,0.9-3.3,2.1-4.9,1.9c-1.6-0.1-1.9-2.3-1.9-3.6
		c-0.1-4.2,1-9.6,3.9-12.8C282.8,148.5,284.1,148,285.5,148.2z"/>
	<ellipse class="st17" cx="314.9" cy="268" rx="29.2" ry="29.8"/>
	<path class="st17" d="M311.4,299.2c1.7,0.1,3.4,0.3,5.1,0.2c5.1-0.1,9.7-2,14-4.7c7.9-5.1,11-13,13.4-22.3
		c1.4-5.7-0.2-12.6-0.2-12.6s5.7-5.7,5.7-5.7c1-0.2,5.5,14.4,5.7,15.7c0.4,2.1,0.6,4.1,0.7,6.2c0.3,10.2-3.7,19.7-9.5,28.5
		c-8.1,12.3-18.6,28.7-32.3,35.2c-6.6,3.1-14.1,2.5-20-0.8c-0.6-0.3-1-0.6-1.6-0.7"/>
	<path class="st18" d="M238.3,309.6c-0.7-0.7-1-1-1-1c-1.2-1.2-3.2-1.2-4.5,0l-7.5,7.5c-1.2,1.2-1.2,3.2,0,4.5c0,0,0.7,0.7,1.4,1.4
		c0,2.8,0,5.6,0,5.6c0,1.8,0.7,3.6,2,4.9l23.3,23.3c1.4,1.4,3.2,2.1,5.1,2c0,0,2.6,0,5.3-0.1c0.8,0.8,1.6,1.5,1.6,1.5
		c1.2,1.2,3.2,1.1,4.4-0.1l7.5-7.5c1.2-1.2,1.2-3.2,0-4.5C275.9,347.2,244.4,315.8,238.3,309.6z"/>
	<path class="st14" d="M240.9,330.5c0,0,2.8-2.9,7.9-8"/>
	<path class="st14" d="M277.7,293.6c50.3-50.5,139.6-140.2,187.1-187.8"/>
	<path class="st14" d="M484.3,86.2c7.7-7.7,12.1-12.1,12.1-12.1"/>
	<path class="st14" d="M242.4,333c0,0,3.1-3.1,8.5-8.6"/>
	<path class="st14" d="M279.1,296.2C328.8,246.2,417,157.7,465,109.6"/>
	<path class="st14" d="M488.8,85.6c6.1-6.1,9.5-9.6,9.5-9.6"/>
	<path class="st14" d="M245.4,335c0,0,2.9-2.9,8-8"/>
	<path class="st14" d="M280.9,299.4c48.9-49.1,136.6-137.1,185.3-186.1"/>
	<path class="st14" d="M493.3,86.2c5.2-5.2,8.1-8.2,8.1-8.2"/>
	<path class="st14" d="M247.4,338c0,0,3.1-3.1,8.6-8.6"/>
	<path class="st14" d="M283.4,301.9c49.1-49.3,136.4-137,185-185.7"/>
	<path class="st14" d="M497.1,87.3c4-4,6.2-6.2,6.2-6.2"/>
	<path class="st14" d="M250.4,340c0,0,2.9-2.9,8.2-8.2"/>
	<path class="st14" d="M287.1,303.1c1.4-1.4,2.9-2.9,4.4-4.4"/>
	<path class="st14" d="M298.3,292c51.1-51.3,130.6-131.1,175.1-175.8"/>
	<path class="st14" d="M500.5,89c3.8-3.9,5.9-6,5.9-6"/>
	<path class="st14" d="M252.9,342.5c0,0,2.9-3,8.2-8.2"/>
	<path class="st14" d="M302.3,292.9c51.9-52.1,131.9-132.4,175.4-176.1"/>
	<path class="st14" d="M503.3,91.1c3.3-3.3,5-5.1,5-5.1"/>
</g>
</svg>
