<?xml version="1.0" encoding="utf-8"?>
<!-- Generator: Adobe Illustrator 22.0.1, SVG Export Plug-In . SVG Version: 6.00 Build 0)  -->
<svg version="1.1" xmlns="http://www.w3.org/2000/svg" xmlns:xlink="http://www.w3.org/1999/xlink" x="0px" y="0px"
	 viewBox="0 0 648 432" style="enable-background:new 0 0 648 432;" xml:space="preserve">
<style type="text/css">
	.st0{fill:#FFFFFF;}
	.st1{fill:#333333;}
	.st2{fill:none;stroke:#440606;stroke-width:3.7456;stroke-miterlimit:10;}
	.st3{fill:#D1D3D4;}
	.st4{fill:#FC354C;}
	.st5{fill:#440606;}
	.st6{opacity:0.88;fill:#FFFFFF;}
	.st7{opacity:0.6;fill:#6ECCE5;}
	.st8{fill:none;stroke:#440606;stroke-width:3;stroke-miterlimit:10;}
	.st9{fill:none;stroke:#440606;stroke-width:2;stroke-linecap:round;stroke-miterlimit:10;}
	.st10{fill:#FD818F;}
	.st11{fill:none;stroke:#440606;stroke-width:2;stroke-miterlimit:10;}
	.st12{fill:none;stroke:#440606;stroke-width:3.2006;stroke-miterlimit:10;}
</style>
<g id="color">
	<path class="st0" d="M463.3,251.7c2.3,1.7,4.7,3.4,7,5c0.9,0.6,1.7,1.3,2.7,1.8c5.7,3.1,13.6-0.4,18.6-3.4
		c5.7-3.5,10.7-8.2,15.2-13.2c2-2.2,4-4.5,5.9-6.8c7.8-9.7,12.2-21.2,19.4-31.2c3.8-5.2,8.3-10,13.7-13.5c5.4-3.5,12.5-5,16.2-10.8
		c0.5-0.8,0.5-1.8,0-2.6c-9.8-14.1-20-28.5-31-41.8c-11.4-13.7-24.7-25.6-36.3-39.1c-0.2-0.3-0.5-0.6-0.7-0.9
		c-4.6-5.4-8.6-11.1-12.5-17c-3.1-4.7-5.7-10.6-9.9-14.4c-3.6-3.2-12.6-1.1-17.2-0.9c-13,0.7-26.2,2.4-38.5,7.2
		c-11.9,4.7-22.6,12.2-34.7,16.3c-8.8,3-18.3,4.2-26.1,9.2c-3.4,2.2-8.7,7.3-9.5,11.6c-0.9,5,6.8,10.8,9.9,14.2
		c9.4,10.6,18.8,21.2,28.2,31.8c3.1,3.6,6.3,7.1,8.9,11.1c2.5,3.9,4.5,8,7,11.9c5,7.6,12,13.6,17.6,20.8c4.6,5.9,8.3,12.4,12.1,18.8
		c4.4,7.4,9,17.4,15.3,23.4C449.6,244,457.4,247.6,463.3,251.7z"/>
	<path class="st1" d="M381,286.8C381,286.8,381.1,286.8,381,286.8c0.6-0.6,1.3-0.8,2-0.9c3.9-0.6,7.5-2.2,11.3-3.2
		c4.4-1.2,9.4-1.8,13.1,1.5c5.2,4.6,4,13.4,8.7,18.6c2.7,3.1,7,4.2,10.5,6.2c12.8,7,15.9,26.8,6,37.5c-20.9,1.8-37.9,11.5-56.6,20
		c-17.4,7.9-35.2,1.8-53.3,1.9c-15.7,0.1-30.5,6.1-45.9,8.4c-11.3,1.7-22.9,2.7-34.4,3.9c-7.1,0.7-13.9,1-20.7,1
		c-13.7,0-27.1-1-40.8-1c-26.7,0-31,9.6-48.4,9.6c-8.6,0-10.6-4.2-17.1-6.9c-2.2-0.9-4.4-2-6.6-3.2c-17.6-9.5-26.3-26.6-27.4-46.2
		c-0.5-8.9,2.2-16.1,5.8-23c7.7-14.6,15.4-22.3,15.4-32.8c0-4.8-1.6-10.1-5.5-16.9c-1.7-3-3.2-6.1-3.6-9.9c-1-9.2,0.9-18.5,3.3-27.3
		c3.8-13.6,9.2-28.9,18.2-40c5-6.1,11.9-10.3,17.5-15.8c5.7-5.7,8.7-13.6,14.8-18.8c4.6-4,10.7-5.7,16.7-7.3
		c20-5.4,39.9-10.9,60.2-16.4c3.2-0.9,6.9-2,10.7-2.8c12.6-2.9,28.2-10,42.5-10c16,0,25.3,9.6,25.3,20.6c0,4.9-1.7,9.7-1.7,14.5
		c0,9.6,7.5,13.7,7.6,21.9c0,0,0,0.1,0,0.1c0,1.4-0.4,3.5-1.9,3.9c0.3-0.1,0.7-0.2,1.1-0.3c-1.2,0.6-1.6,0.8-2.8,0.9
		c1.2,2.4,3.5,4.7,5.3,6.7c19.4,21.5,31.1,48.7,46.1,73.5c2.9,4.9,6,9.6,9.2,14.3c4.4,6.4,9.1,12.6,13.7,18.8
		c0.1,0.2,0.2,0.3,0.4,0.4C380.7,288.3,380.8,287.2,381,286.8z"/>
	<path class="st2" d="M362.3,141.8c-0.5,0.1-3.9-5.5-4.2-6c-4.8-6.9-10.1-13.5-14.9-20.4c-0.5-0.7-0.9-1.6-1-2.5
		c-0.1-2.4,2.2-4,3.2-5.9"/>
	<path class="st3" d="M562.3,179.9c0.3,6.9,0.2,14.1-2.6,20.5c-2.8,6.2-8.3,9.2-13.4,13.2c-8,6.3-12.3,15.6-17.4,24.1
		c-5.5,9.2-13,16.4-21.2,23.2c-7.4,6.1-16,15.6-26.3,16.2c-5,0.3-9.5-2.8-13.2-5.9c-3.2-2.7-6.3-5.6-9.4-8.5
		c-2.7-2.5-5.6-4.9-8.2-7.6c-1.8-1.9-3.4-4.1-5.1-6c-0.9-1.1-2-2.1-3.1-2.9c-1.2-0.8-2.5-1.1-3.7-1.8c0.5-1.5,4.7-3.3,5.7-4.5
		c0.8-1,6.1,2.9,6.7,3.3c4.1,2.7,8.1,5.6,12.1,8.4c2.3,1.7,4.7,3.4,7,5c0.9,0.6,1.7,1.3,2.7,1.8c5.7,3.1,13.6-0.4,18.6-3.4
		c5.7-3.5,10.7-8.2,15.2-13.2c2-2.2,4-4.5,5.9-6.8c7.8-9.7,12.2-21.2,19.4-31.2c3.8-5.2,8.3-10,13.7-13.5c2.9-1.9,6.1-3.1,9.2-4.8
		c1.5-0.8,3-1.7,4.3-2.8c1.1-0.9,1.8-2.1,2.7-3.2C562,179.7,562.1,179.8,562.3,179.9z"/>
	<path class="st3" d="M345.4,107c-1.1,1.9-3.4,3.5-3.2,5.9c0,0.9,0.5,1.7,1,2.5c4.8,6.9,10,13.5,14.9,20.4c0.3,0.5,3.8,6.1,4.2,6
		c2.3-0.6,4.5-2,6-3.9c-2.3-4-5-7.8-8.2-11.2c-2.3-2.5-4.6-4.8-6.6-7.7c-1.8-2.7-3.5-5.5-5.7-7.9C346.8,109.9,346.5,108.1,345.4,107
		z"/>
	<path class="st4" d="M340,272.3c1.7,3.6,1.9,8.2,2.2,11.7c0.5,7.6-0.9,15.2-3.5,22.3c-2.1,5.7-8.5,21.1-16.8,18.6
		c-2.8-0.9-4.3-4.4-3-8.7c0.1-0.3,0.2-0.5,0.3-0.8c0.3-0.7,0.1-1.6-0.5-2.1c-1.2-1-2.4-1.7-3.8-2.1c-14.1-4.3-25.4,13.2-22.4,25.4
		c1.9,7.8,7.9,14.2,14.9,18c16,8.7,33.8,5.3,47-6.8c10.5-9.6,16.8-22.5,20.4-36.1c1-3.8,1.8-7.7,2.5-11.6c1-6.1,1.7-13.3,7.6-16.8
		c4-2.3,9.3-2.2,13.6-4c4.6-1.9,8.7-4.7,12.1-8.2c5.6-5.8,9.4-12.9,16-19.7c7.4-7.6,16.1-11.8,26.1-14.9c10.5-3.2,18-7.6,23.1-17.4
		c5-9.5,9.7-19.1,14.9-28.5c6.1-11,12.2-22,16.4-33.9c3.9-11.2,6.2-23.8,1.4-35.1c-0.3-0.7-0.7-1.4-1.2-2.1
		c-10.4-15.2-41.4-13.2-57.2-13c-11.1,0.1-22.2,0.8-33.3,1.8c-5.4,0.5-11.4,0.3-16.6,1.8c-7.7,2.1-13.3,8.3-18,14.4
		c-6.5,8.2-13.5,14.8-23.3,19c-8.7,3.7-16.7,4.7-24.1,7.8c-4.6,1.9-8.6,4.7-12,8.3c-3.2,3.4-5,8.4-8.6,11.2c-7.5,6-18,1.1-25-3.3
		c-10.9-6.8-20.4-13.8-33.5-15.6c-11.7-1.7-23.9,0.1-35,3.2c-26.7,7.4-69.6,33.7-52.5,68.8c2,4.1,9.1,13.1,15.8,15.3
		c10.6,3.5,25.5-6.7,21.5-20.5c-0.4-1.3-1-2.6-1.9-3.8c-0.4-0.6-1.1-0.8-1.7-0.6c-0.2,0.1-0.5,0.2-0.7,0.2c-3.7,1.1-6.8-0.6-7.6-3.3
		c-1.5-5.4,3.8-9.4,7.8-11.7c5.5-3.2,11.9-5.4,18.2-6c3.3-0.3,6.7-0.3,9.9,0.3c1.8,0.3,3.6,0.6,5.4,1.2c0.8,0.3,1.9,0.6,2.6,1.1
		c1,0.8,0.5,1.2,0.1,2.3c-0.4,1.2-0.2,2.6,0.2,3.8c0.8,2.3,2.5,4.4,4.7,5.5c4,2,8.8,1.7,13.3,1.5c4.5-0.1,9.4,0.2,12.8,3.1
		c3.2,2.7,4.4,7.2,7.3,10.1c6.2,6.2,18.7,4.4,22.8,12.2c2,3.8,1.1,8.7,3.3,12.4c3.4,6,12.4,5.8,17.3,10.5c2.7,2.6,4.2,6.6,7.6,8.2
		c3.3,1.6,7.8,0.5,10.7,2.8C338.6,269.8,339.4,270.9,340,272.3z"/>
	<path class="st5" d="M382.2,207.7c-2.5,1.9-10-8.7-13.4-13.6c-0.8-1.2-0.5-2.9,0.8-3.7c5.6-3.4,13.6-4.7,17.6,1.6
		C389.8,196.2,389,202.6,382.2,207.7z"/>
	<path class="st6" d="M406.7,199.2c3.8,2.8,8.4,4.2,12.7,6.1c4.3,1.8,8.7,4.2,11.2,8.2c4,6.4,2,15.3-3.1,20.8
		c-3,3.2-7.1,5.5-11.4,5.4c-7.2-0.1-12.8-6.4-15.5-13c-4.5-11.1-3.4-23.8-0.9-35.4c0.1-0.6,0.9-0.6,1.1,0
		C401.7,194.5,404.1,197.3,406.7,199.2z"/>
	<path class="st7" d="M406.7,199.2c3.8,2.8,8.4,4.2,12.7,6.1c4.3,1.8,8.7,4.2,11.2,8.2c4,6.4,2,15.3-3.1,20.8
		c-3,3.2-7.1,5.5-11.4,5.4c-7.2-0.1-12.8-6.4-15.5-13c-4.5-11.1-3.4-23.8-0.9-35.4c0.1-0.6,0.9-0.6,1.1,0
		C401.7,194.5,404.1,197.3,406.7,199.2z"/>
	<path class="st0" d="M422.1,233.8c0,0,0.1-0.1,0.1-0.1c0.1-0.2,0.1-0.6,0.1-0.9c-0.3-1.3-1.5-1.8-2.6-2c-2.1-0.3-4-0.1-5.8-1.8
		c-0.8-0.8-1.5-1.9-2.4-2.6c-1.1-0.8-2.4-0.3-2.8,0.8c-0.6,1.3-0.3,3,0.7,4.3c1.4,1.7,3.6,2.6,5.5,2.9c2.1,0.4,4.2,0.2,6.1-0.2
		C421.3,234.2,421.8,234.1,422.1,233.8z"/>
</g>
<g id="outline">
	<path class="st2" d="M562.3,178.8c0.3,7.3,0.4,14.9-2.6,21.7c-2.8,6.2-8.3,9.2-13.4,13.2c-8,6.3-12.3,15.6-17.4,24.1
		c-5.5,9.2-13,16.4-21.2,23.2c-7.4,6.1-16,15.6-26.3,16.2c-5,0.3-9.5-2.8-13.2-5.9c-3.2-2.7-6.3-5.6-9.4-8.5
		c-2.7-2.5-5.6-4.9-8.2-7.6c-1.8-1.9-3.4-4.1-5.1-6c-0.9-1.1-2-2.1-3.1-2.9c-1.2-0.8-2.5-1.1-3.7-1.8c0.5-1.5,4.7-3.3,5.7-4.5
		c0.8-1,6.1,2.9,6.7,3.3c4.1,2.7,8.1,5.6,12.1,8.4c2.3,1.7,4.7,3.4,7,5c0.9,0.6,1.7,1.3,2.7,1.8c5.7,3.1,13.6-0.4,18.6-3.4
		c5.7-3.5,10.7-8.2,15.2-13.2c2-2.2,4-4.5,5.9-6.8c7.8-9.7,12.2-21.2,19.4-31.2c3.8-5.2,8.3-10,13.7-13.5c5.4-3.5,12.5-5,16.2-10.8
		c0.5-0.8,0.5-1.8,0-2.6c-9.8-14.1-20-28.5-31-41.8c-11.4-13.7-24.7-25.6-36.3-39.1c-0.2-0.3-0.5-0.6-0.7-0.9
		c-4.6-5.4-8.6-11.1-12.5-17c-3.1-4.7-5.7-10.6-9.9-14.4c-3.6-3.2-12.6-1.1-17.2-0.9c-13,0.7-26.2,2.4-38.5,7.2
		c-11.9,4.7-22.6,12.2-34.7,16.3c-8.8,3-18.3,4.2-26.1,9.2c-4.3,2.7-6.9,6.7-9.3,11c-0.1,0.3-0.3,0.5-0.3,0.8c-0.1,1.1,1.3,2.3,2,3
		c2.5,2.6,4.3,5.6,6.3,8.5c1.9,2.8,4.3,5.2,6.6,7.7c3.1,3.4,5.9,7.2,8.2,11.2c-1.5,1.9-3.6,3.3-6,3.9c-0.5,0.1-3.9-5.5-4.2-6
		c-4.8-6.9-10.1-13.5-14.9-20.4c-0.5-0.7-0.9-1.6-1-2.5c-0.1-2.4,2.2-4,3.2-5.9"/>
	<path class="st8" d="M330.1,256.9c5.2,4.2,8.4,11.5,10.3,17.4c3.4,10.4,2,21.8-1.7,31.9c-2.1,5.7-8.5,21.1-16.8,18.6
		c-2.8-0.9-4.3-4.4-3-8.7c0.1-0.3,0.2-0.5,0.3-0.8c0.3-0.7,0.1-1.6-0.5-2.1c-1.2-1-2.4-1.7-3.8-2.1c-14.1-4.3-25.4,13.2-22.4,25.4
		c1.9,7.8,7.9,14.2,14.9,18c16,8.7,33.8,5.3,47-6.8c10.5-9.6,16.8-22.5,20.4-36.1c1-3.8,1.8-7.7,2.5-11.6c1-6.1,1.7-13.3,7.6-16.8
		c4-2.3,9.3-2.2,13.6-4c4.6-1.9,8.7-4.7,12.1-8.2c5.6-5.8,9.4-12.9,16-19.7c7.4-7.6,16.1-11.8,26.1-14.9c10.5-3.2,18-7.6,23.1-17.4
		c5-9.5,9.7-19.1,14.9-28.5c6.1-11,12.2-22,16.4-33.9c3.9-11.2,6.2-23.8,1.4-35.1c-0.3-0.7-0.7-1.4-1.2-2.1
		c-10.4-15.2-41.4-13.2-57.2-13c-11.1,0.1-22.2,0.8-33.3,1.8c-5.4,0.5-11.4,0.3-16.6,1.8c-7.7,2.1-13.3,8.3-18,14.4
		c-6.5,8.2-13.5,14.8-23.3,19c-8.7,3.7-16.7,4.7-24.1,7.8c-4.6,1.9-8.6,4.7-12,8.3c-3.2,3.4-5,8.4-8.6,11.2c-7.5,6-18,1.1-25-3.3
		c-10.9-6.8-20.4-13.8-33.5-15.6c-11.7-1.7-23.9,0.1-35,3.2c-26.7,7.4-69.6,33.7-52.5,68.8c2,4.1,9.1,13.1,15.8,15.3
		c10.6,3.5,25.5-6.7,21.5-20.5c-0.4-1.3-1-2.6-1.9-3.8c-0.4-0.6-1.1-0.8-1.7-0.6c-0.2,0.1-0.5,0.2-0.7,0.2c-3.7,1.1-6.8-0.6-7.6-3.3
		c-2.3-8.1,11-13.6,15.8-15.4c8.7-3.1,18.5-3.9,27.6-0.1c3.8,1.6,7.2,3.9,10.5,6.3c0,0,0.1,0.1,0.1,0.1"/>
	<path class="st5" d="M393.9,148.7c5.7,2.7,10.4,7.4,12.3,13.6c1.7-1,3.2-1.9,5.1-2.5c0.6-0.2-1.5-5.7-1.7-6.3
		c-1.9-4.2-5.3-7.7-8.8-10.6c-0.8-0.7-4.8-4.6-5.8-4c-3,1.9-6.4,4.3-8.3,7.3c0.2-0.3,3.8,1.1,4.1,1.2
		C391.9,147.8,392.9,148.2,393.9,148.7z"/>
	<path class="st5" d="M435.5,204c-0.3-6.4-3-12.5-8.1-16.6c1.6-1.2,3-2.3,4.2-3.9c0.4-0.5,4.8,3.5,5.2,4c3.2,3.4,5.2,7.8,6.7,12.2
		c0.3,1,2.5,6.2,1.5,7c-2.9,2.1-6.4,4.4-10,5c0.4-0.1,0.4-3.9,0.4-4.3C435.5,206.2,435.5,205.1,435.5,204z"/>
	<path class="st9" d="M382.2,207.7c-2.5,1.9-10-8.7-13.4-13.6c-0.8-1.2-0.5-2.9,0.8-3.7c5.6-3.4,13.6-4.7,17.6,1.6
		C389.8,196.2,389,202.6,382.2,207.7z"/>
	<path class="st10" d="M382.4,206.9c-2.2,1.7-9.2-8.3-12.3-12.8c-0.8-1.1-0.5-2.7,0.6-3.4c2.6-1.6,7.2,1.2,10.4,3.9
		c0.3,0.3,0.6,0.6,0.8,1C383,197.5,387.4,203,382.4,206.9z"/>
	<path class="st11" d="M406.7,199.2c3.8,2.8,8.4,4.2,12.7,6.1c4.3,1.8,8.7,4.2,11.2,8.2c4,6.4,2,15.3-3.1,20.8
		c-3,3.2-7.1,5.5-11.4,5.4c-7.2-0.1-12.8-6.4-15.5-13c-4.5-11.1-3.4-23.8-0.9-35.4c0.1-0.6,0.9-0.6,1.1,0
		C401.7,194.5,404.1,197.3,406.7,199.2z"/>
	<path class="st12" d="M380.9,286.6c9.3-1.7,19.5-8.6,26.6-2.5c5.2,4.6,4,13.4,8.7,18.6c2.7,3.1,7,4.2,10.5,6.2
		c12.8,7,15.9,26.8,6,37.5c-20.9,1.8-37.9,11.5-56.6,20c-17.4,7.9-35.2,1.8-53.3,1.9c-15.7,0.1-30.5,6.1-45.9,8.4
		c-11.3,1.7-22.9,2.7-34.4,3.9c-7.1,0.7-13.9,1-20.7,1c-13.7,0-27.1-1-40.8-1c-26.7,0-31,9.6-48.4,9.6c-8.6,0-10.6-4.2-17.1-6.9
		c-2.2-0.9-4.4-2-6.6-3.2c-17.6-9.5-26.3-26.6-27.4-46.2c-0.5-8.9,2.2-16.1,5.8-23c7.7-14.6,15.4-22.3,15.4-32.8
		c0-4.8-1.6-10.1-5.5-16.9c-1.7-3-3.2-6.1-3.6-9.9c-1-9.2,0.9-18.5,3.3-27.3c3.8-13.6,9.2-28.9,18.2-40c5-6.1,11.9-10.3,17.5-15.8
		c5.7-5.7,8.7-13.6,14.8-18.8c4.6-4,10.7-5.7,16.7-7.3c20-5.4,39.9-10.9,60.2-16.4c3.2-0.9,6.9-2,10.7-2.8c12.6-2.9,28.2-10,42.5-10
		c16,0,25.3,9.6,25.3,20.6c0,4.9-1.7,9.7-1.7,14.5c0,9.6,7.5,13.7,7.6,21.9c0,0,0,0.1,0,0.1c0,1.4-0.4,3.5-1.9,3.9
		c0.3-0.1,0.7-0.2,1.1-0.3c-1.2,0.6-1.6,0.8-2.8,0.9"/>
	<path class="st12" d="M238.4,196.7c-2.6,3.7,0.1,9.1,4.1,11.1c4,2,8.8,1.7,13.3,1.5c4.5-0.1,9.4,0.2,12.8,3.1
		c3.2,2.7,4.4,7.2,7.3,10.1c6.2,6.2,18.7,4.4,22.8,12.2c2,3.8,1.1,8.7,3.3,12.4c3.4,6,12.4,5.8,17.3,10.5c2.7,2.6,4.2,6.6,7.6,8.2
		c3.9,1.9,9.9,0.4,12,4.3"/>
</g>
</svg>
