<?xml version="1.0" standalone="no"?>
<!DOCTYPE svg PUBLIC "-//W3C//DTD SVG 20010904//EN"
 "http://www.w3.org/TR/2001/REC-SVG-20010904/DTD/svg10.dtd">
<svg version="1.0" xmlns="http://www.w3.org/2000/svg"
 width="400.000000pt" height="400.000000pt" viewBox="0 0 400.000000 400.000000"
 preserveAspectRatio="xMidYMid meet">
<metadata>
Created by potrace 1.11, written by Peter Selinger 2001-2013
</metadata>
<g transform="translate(0.000000,400.000000) scale(0.100000,-0.100000)"
fill="#000000" stroke="none">
<path d="M1945 3780 c-43 -9 -68 -27 -96 -69 -13 -20 -26 -38 -29 -41 -3 -3
-23 -32 -45 -65 -22 -33 -117 -137 -211 -230 -255 -256 -266 -294 -147 -534
68 -138 73 -180 37 -327 -28 -113 -28 -170 -2 -269 33 -119 34 -184 6 -246
-34 -74 -153 -198 -252 -263 -74 -49 -159 -93 -196 -101 -8 -2 -27 -8 -42 -14
-15 -5 -64 -9 -110 -8 -71 2 -90 6 -130 30 -140 82 -148 226 -18 347 26 25 90
67 141 94 236 122 299 195 293 336 -5 140 -96 256 -239 305 -74 26 -192 31
-251 11 -131 -43 -167 -155 -70 -215 62 -38 104 -24 160 53 39 54 80 86 111
86 32 0 85 -32 105 -65 38 -62 30 -127 -25 -199 -34 -45 -83 -79 -195 -136
-134 -69 -181 -109 -238 -203 -57 -94 -80 -236 -58 -357 22 -120 140 -269 264
-333 84 -43 133 -55 257 -62 193 -11 268 -26 321 -65 34 -25 63 -75 71 -121 9
-54 9 -55 -1 -104 -11 -55 -34 -86 -157 -205 -127 -123 -151 -166 -150 -266 1
-120 78 -237 190 -287 25 -12 51 -22 56 -23 180 -42 331 -9 365 81 30 80 -61
167 -142 136 -15 -5 -46 -35 -69 -66 -65 -87 -113 -102 -177 -56 -44 31 -52
45 -59 98 -10 87 38 152 182 248 142 96 233 184 415 405 55 67 110 94 194 94
64 1 76 -2 117 -31 45 -31 82 -71 149 -157 62 -79 232 -235 350 -319 134 -96
172 -145 172 -223 0 -53 -20 -86 -72 -122 -57 -38 -112 -17 -165 62 -30 45
-75 76 -112 76 -33 0 -92 -48 -101 -83 -50 -185 349 -224 521 -50 60 59 91
134 91 218 0 92 -25 143 -111 226 -177 171 -191 190 -200 280 -11 108 47 194
147 223 67 18 120 25 245 31 116 6 171 18 239 50 120 58 214 156 263 275 23
56 27 80 27 170 1 110 -7 144 -52 239 -41 86 -110 147 -251 221 -181 95 -248
172 -238 273 3 40 11 56 41 85 31 32 43 37 82 37 49 0 48 1 132 -104 50 -63
107 -65 170 -8 16 15 22 32 22 62 0 55 -25 87 -95 119 -92 44 -231 32 -344
-30 -127 -68 -198 -219 -165 -346 27 -104 87 -162 262 -252 140 -71 231 -153
248 -221 22 -84 7 -135 -55 -196 -59 -57 -114 -74 -215 -66 -173 13 -419 169
-534 338 -56 83 -60 142 -20 294 26 101 26 172 -1 266 -41 146 -34 193 51 361
91 179 74 271 -79 418 -170 165 -243 244 -302 327 -34 49 -72 100 -83 115 -33
43 -116 64 -193 48z"/>
</g>
</svg>
