<svg version="1.1" xmlns="http://www.w3.org/2000/svg" xmlns:xlink="http://www.w3.org/1999/xlink" x="0px" y="0px"
	 viewBox="0 0 648 432" style="enable-background:new 0 0 648 432;" xml:space="preserve">
<style type="text/css">
	.st0{fill:#FC354C;}
	.st1{opacity:0.39;fill:#D1D3D4;}
	.st2{fill:#440606;}
	.st3{fill:#FFFFFF;}
	.st4{fill:#FD818F;}
	.st5{fill:none;stroke:#751414;stroke-miterlimit:10;}
	.st6{fill:none;stroke:#440606;stroke-width:3;stroke-miterlimit:10;}
	.st7{fill:none;stroke:#C92A14;stroke-miterlimit:10;}
	.st8{fill:none;stroke:#440606;stroke-width:1.1272;stroke-miterlimit:10;}
	.st9{fill:none;stroke:#440606;stroke-width:1.0133;stroke-miterlimit:10;}
	.st10{fill:none;stroke:#440606;stroke-width:2;stroke-miterlimit:10;}
	.st11{fill:none;stroke:#440606;stroke-width:2;stroke-linecap:round;stroke-miterlimit:10;}
</style>
<g id="color">
	<path class="st0" d="M398.6,312.4c0.7,0.4,1.4,0.9,2,1.5c8.9,7.2,13.9,17.5,20.9,26.3c11.2,14.1,35.2,30.1,54.4,26.6
		c8.6-1.6,17-6.6,19.8-15.3c2-6,0.8-12.8-2.4-18.2c-3.4-5.7-9.4-8.5-15.8-6c-0.2,0.1-0.5,0.2-0.6,0.4c-0.1,0.2-0.1,0.4-0.2,0.6
		c-0.3,3.2-0.8,8.2-5.1,8.1c-4.8-0.1-8.9-3.4-11.4-7.3c-2.7-4.3-3.2-9.6-3.2-14.6c0-10.5-0.9-21-2-31.4c-0.8-6.7-1.1-14.7-4.2-20.9
		c-0.6-1.3-1.3-2.6-1.9-4c-0.1-0.2-0.2-0.5-0.1-0.7c0.1-0.1,0.2-0.2,0.4-0.3c3.6-1.8,7.2-3.5,10.9-5c4-1.6,8-3.3,11.8-5.5
		c10.6-6,17.6-16.3,18.5-29.4c0.5-7.4-1.6-15.2-6.8-20.5c-8.1-8.3-27.3-8-30.9,5.1c-0.4,1.4-0.5,2.8-0.2,4.3
		c0.1,0.4,0.4,0.8,0.9,0.9l1.2,0.3c4,1.1,6,4,5.3,6.6c-2.1,7.7-17.4,5.2-22.8,4c-9.7-2-19.3-6.6-25.8-14.3c-3.8-4.6-7.8-9.1-8.7-15
		c-0.1-0.4,0.1-0.9,0.5-1.2c1.7-1.2,2.9-2.3,4.7-3c0.6-0.2,1-0.9,0.7-1.6c-2-4.5-1.4-10.9-1.4-15.4c0-7.2,0.5-14.7,0.5-21.9
		c0-13.3-2.6-26.7-11.4-37.1c-5.6-6.6-12.9-11.6-19-17.7c-3.8-3.9-7.1-8.5-10.6-12.7c-4.6-5.5-8.8-11.5-11.4-18.1c0,0-0.1,0-0.1,0
		c-3.6,0-6.5,0.7-9.9,1.1c-0.5,0.1-0.9-0.2-1.2-0.6c-5.1-8.5-13.9-14.1-21.8-19.8c-7.9-5.6-18.1-12.7-28.2-12.5
		c-0.5,0-1,0.1-1.5,0.1c-19.1,3.3-29.9,34.2-36.3,49.6c-4.4,10.7-8.3,21.6-11.8,32.6c-1.7,5.3-4.3,11.1-5,16.6
		c-1.1,8.2,2.6,16.1,6.4,23.1c5.2,9.5,8.7,19,8.7,30c0,9.8-2.3,17.9-2.3,26.3c0,5.2,1,10.2,3.1,14.9c1.9,4.4,6,8.2,7.3,12.8
		c2.7,9.6-6.4,17.7-13.4,22.7c-8.4,5.8-19,7.7-29.1,7.1c-5.6-0.3-21.3-1.9-21.3-10c0-2.8,2.8-5,7-5c1.3,0,2.5-0.7,2.8-1.9
		c0.3-1,0.5-2,0.5-3c0-13.8-18.7-19.2-28.8-13.2c-6.5,3.8-10.6,10.9-12.1,18.3c-3.4,16.8,4.4,31.7,18.9,40.3
		c14.8,8.8,31.6,9.7,48.3,7.6c1-0.1,1.9-0.3,2.9-0.4c2.6-0.4,4.7,2.1,3.8,4.6c-1.2,3.5-2.6,6.9-4.6,10.1c-5.6,9.1-15,15.3-24.9,19
		c-5.5,2-21.2,7-24.6-0.7c-1.1-2.6,0.5-6,4.6-7.7c0,0,0.1,0,0.1,0c1.2-0.5,2-1.7,1.8-2.9c-0.1-1.1-0.4-2.2-0.8-3.2
		c-5.7-13.2-25.9-10.6-33.1-0.6c-4.6,6.4-4.9,18.1-4,22.5c8.2,38.3,64.4,28.6,93.4,15.7c14.8-6.6,30.3-15.1,40.1-28.4
		c1.5-2.1,4.8-1.2,5.2,1.3c2.1,11.5-1.4,26.6-5.2,36.2c-2.1,5.4-7.3,15.9-14.7,13.3c-2.6-0.9-3.9-4.3-2.5-8.2
		c0.4-1.2,0.1-2.6-0.9-3.3c-0.8-0.6-1.7-1.1-2.7-1.4c-13-4.5-24.3,11.3-22,22.9c1.5,7.4,6.8,13.6,13.3,17.4
		c19,11.3,40.4,4.7,55-10.5c15-15.7,17.3-36.7,23.1-56.6c0.6-1.9,1.2-3.9,1.9-5.7c2.6-7,6.7-13.9,12.7-18.5c7-5.3,15.8-4.7,24.1-4.4
		c2.5,0.1,5,0.2,7.5,0.4"/>
	<ellipse class="st1" cx="385.8" cy="120.4" rx="62.9" ry="68.7"/>
	<path class="st2" d="M386,51c-42.8,0-77.5,30.9-77.5,69.1c0,37.7,34,68.4,76.2,69c-34.3-0.6-61.9-31.1-61.9-68.7
		c0-38,28.2-68.7,62.9-68.7s62.9,30.8,62.9,68.7c0,37.9-28.1,68.6-62.8,68.7c0,0,0.1,0,0.1,0c42.8,0,77.5-30.9,77.5-69.1
		S428.8,51,386,51z"/>
	<path class="st2" d="M394.7,217.7c0.2,0.1,0.4-0.1,0.4-0.2c-0.9-15.4-1.6-27.4-1.6-27.4c0-0.4-0.4-0.8-0.9-0.8l-7.3-0.3
		c-0.6,0-1,0.4-1,0.8c0,0,0.1,12.2,0.1,27.7c0,0.2,0.3,0.3,0.4,0.2C389.8,216.5,389.8,216.5,394.7,217.7z"/>
	<path class="st3" d="M408.6,67.5c-0.1,0.1-0.3,0.1-0.4,0.2c-0.7,0.4-1.2,1.2-1.5,2c-1.3,3.5,1.4,6.1,4.1,7.9
		c5.2,3.3,10.7,5.1,13,11.4c1.1,2.9,1.1,6.2,2.6,9c1.8,3.4,5.9,3.6,8.8,1.6c3.4-2.3,5.3-6.9,4.5-11c-1.1-5.7-5.8-10.5-10.5-13.7
		c-5-3.4-10.9-5.6-16.7-7C411.3,67.5,409.9,67,408.6,67.5z"/>
	<path class="st2" d="M318.9,212.5c-0.4-4.1,16.8-5.1,24.6-5.5c2-0.1,3.7,1.5,3.6,3.4c-0.1,8.7-4.3,18.6-14.1,18.6
		C326.6,229,320,223.6,318.9,212.5z"/>
	<path class="st4" d="M333.4,214.4c2.6-0.2,5.2,0,7.8,0.7c1.7,0.4,4.6,1.3,4.6,3.4c0,0.2,0,0.5-0.1,0.8c-2,5.4-6,9.7-12.5,9.7
		c-2.5,0-5-0.9-7.1-2.3c-1-0.7-2-1.5-2.8-2.5c-0.8-0.9-1.9-1.9-1.9-3.1c0-1.3,1.4-2.5,2.3-3.2c1.2-0.9,2.5-1.6,3.9-2.2
		C329.4,215,331.4,214.6,333.4,214.4z"/>
	<path class="st5" d="M385.1,248.3c-0.9-0.9-1.5-2-1.5-3.2c0-4.5,8-5.5,11.2-5.2c0.7,0.1,1.5,0.4,1.8,1.1c0.4,1-0.5,2.2-1.3,2.7"/>
	<path class="st6" d="M385,263.7c-0.6,0.1-1.2,0.2-1.8,0.2c-8.5,0-15.6-11.6-15.6-23.4c0-14.8,11.4-24.2,21.7-24.2
		c18.2,0,36.1,26.4,36.1,49.3c0,4.5-0.8,9.1-2.3,13.4c-1.6,4.7-3.9,9.2-6.9,13.1c-3.2,4.2-7.2,7.7-11.7,10.4c-1.8,1-4.2,2.2-6.1,3"
		/>
	<path class="st7" d="M338.6,336.3c0.6-1.9,1.2-3.9,1.9-5.7c2.6-7,6.7-13.9,12.7-18.5c7-5.3,15.8-4.7,24.1-4.4"/>
	<path class="st2" d="M396.5,240.2c0.8,14.4,1.5,26,1.5,26l5,89.3c0,0.6-0.6,1-1.3,0.9c-5.8-1.4-15.6-10.4-17.3-12
		c-0.2-0.2-0.3-0.4-0.3-0.6c0,0-0.4-71.2,0-78.5c0.1-2.3,0.2-11.4,0.2-22.6c1.4-1.8,5.9-2.8,9.4-2.8
		C394.8,239.9,395.8,240,396.5,240.2z"/>
</g>
<g id="outline">
	<ellipse class="st8" cx="386" cy="120.1" rx="77.5" ry="69.1"/>
	<ellipse class="st9" cx="385.8" cy="120.4" rx="62.9" ry="68.7"/>
	<path class="st10" d="M385.1,248.3c-0.9-0.9-1.5-2-1.5-3.2c0-4.5,8-5.5,11.2-5.2c0.7,0.1,1.5,0.4,1.8,1.1c0.4,1-0.5,2.2-1.3,2.7"/>
	<path class="st6" d="M355.2,60.2c2.7,6.7,6.8,12.7,11.4,18.1c3.5,4.2,6.8,8.8,10.6,12.7c6.1,6.2,13.4,11.1,19,17.7
		c8.8,10.4,11.4,23.8,11.4,37.1c0,7.3-0.5,14.7-0.5,21.9c0,5-0.6,12.1,2,16.6"/>
	<g>
		<circle class="st2" cx="289.1" cy="181.9" r="13.9"/>
		<ellipse class="st3" cx="293.2" cy="179.6" rx="5.2" ry="5.2"/>
	</g>
	<path class="st6" d="M344.3,61.5c-5.1-8.9-14-14.7-22.2-20.4c-7.8-5.5-17.8-12.5-27.8-12.5c-1.1,0-2.1,0.2-3.1,0.4
		c-18.4,4.4-28.9,34.3-35.1,49.3c-4.4,10.7-8.3,21.6-11.8,32.6c-1.7,5.3-4.3,11.1-5,16.6c-1.1,8.2,2.6,16.1,6.4,23.1
		c5.2,9.5,8.7,19,8.7,30c0,9.8-2.3,17.9-2.3,26.3c0,5.2,1,10.2,3.1,14.9c1.9,4.4,6,8.2,7.3,12.8c2.7,9.6-6.4,17.7-13.4,22.7
		c-8.4,5.8-19,7.7-29.1,7.1c-5.6-0.3-21.3-1.9-21.3-10c0-2.8,2.8-5,7-5c0.3,0,0.5,0,0.8,0c0.7,0,1.4-0.3,1.7-1
		c0.6-1.3,0.8-2.6,0.8-4c0-13.8-18.7-19.2-28.8-13.2c-6.5,3.8-10.6,10.9-12.1,18.3c-3.4,16.8,4.4,31.7,18.9,40.3
		c14.8,8.8,31.6,9.7,48.3,7.6c1.6-0.2,3.3-0.4,4.9-0.7c1.7-0.3,3.1,1.4,2.5,3c-1.4,4.2-2.9,8.2-5.3,12c-5.6,9.1-15,15.3-24.9,19
		c-5.5,2-21.2,7-24.6-0.7c-1.1-2.6,0.5-6,4.6-7.7c0.3-0.1,0.5-0.2,0.8-0.3c0.7-0.2,1.2-0.9,1.2-1.6c0-1.5-0.3-2.9-0.8-4.2
		c-5.7-13.2-25.9-10.6-33.1-0.6c-4.6,6.4-4.9,18.1-4,22.5c8.2,38.3,64.4,28.6,93.4,15.7c15.5-6.9,31.9-16,41.6-30.5
		c0.8-1.2,2.7-1,3.1,0.4c3.3,11.7-0.4,28.7-4.5,39.1c-2.1,5.4-7.3,15.9-14.7,13.3c-2.6-0.9-3.9-4.3-2.5-8.2c0.1-0.2,0.2-0.5,0.3-0.7
		c0.3-0.7,0.1-1.5-0.4-2c-1-1-2.2-1.7-3.5-2.1c-13-4.5-24.3,11.3-22,22.9c1.5,7.4,6.8,13.6,13.3,17.4c19,11.3,40.4,4.7,55-10.5
		c15-15.7,17.3-36.7,23.1-56.6c0.6-1.9,1.2-3.9,1.9-5.7c2.6-7,6.7-13.9,12.7-18.5c7-5.3,15.8-4.7,24.1-4.4c2.5,0.1,5,0.2,7.5,0.4"/>
	<path class="st6" d="M398.6,312.4c0.7,0.4,1.3,0.9,2,1.5c8.9,7.2,13.9,17.5,20.9,26.3c11.2,14.1,35.2,30.1,54.4,26.6
		c5.9-1.1,11.5-3.3,15.6-8c5.6-6.5,6.5-16,2.8-23.8c-1.7-3.5-4.8-6.9-8.6-8.2c-2.2-0.7-7.7-1.4-8.8,1.3c-0.2,0.4-0.2,0.8-0.2,1.2
		c-0.2,4.8-3.3,8.4-8.4,6.3c-13.2-5.6-11.3-24.9-11.8-36.4c-0.6-11.7-0.8-24.6-5.2-35.7c-0.7-1.7-1.4-3.3-2.5-4.8
		c-0.2-0.3-0.4-0.7-0.4-1c0.1-0.5,0.6-0.8,1-1c7.5-3.5,15.4-6,22.6-10c10.6-6,17.6-16.3,18.5-29.4c0.5-7.4-1.6-15.2-6.8-20.5
		c-8.1-8.3-27.3-8-30.9,5.1c-0.4,1.6-0.5,3.3,0,5.1l1.9,0.5c4,1.1,6,4,5.3,6.6c-2.1,7.7-17.4,5.2-22.8,4c-9.7-2-19.3-6.6-25.8-14.3
		c-4-4.7-8.1-9.5-8.8-15.7"/>
	<g>
		<circle class="st2" cx="367.1" cy="151.9" r="17.9"/>
		<ellipse class="st3" cx="372.4" cy="149" rx="6.6" ry="6.7"/>
	</g>
	<path class="st11" d="M318.9,212.5c-0.4-4.1,16.8-5.1,24.6-5.5c2-0.1,3.7,1.5,3.6,3.4c-0.1,8.7-4.3,18.6-14.1,18.6
		C326.6,229,320,223.6,318.9,212.5z"/>
</g>
</svg>